<svg width="60" height="60" viewBox="0 0 60 60" fill="none" xmlns="http://www.w3.org/2000/svg">
<path d="M17.352 54.1211H7.04841C6.56163 54.1211 6.16699 54.5156 6.16699 55.0025C6.16699 55.4894 6.56163 55.8839 7.04841 55.8839H17.352C17.8388 55.8839 18.2334 55.4894 18.2334 55.0025C18.2334 54.5157 17.8389 54.1211 17.352 54.1211Z" fill="white"/>
<path d="M59.1186 36.4587C58.6318 36.4587 58.2372 36.8533 58.2372 37.3401V51.2955C57.1564 51.21 56.1032 51.0727 55.0753 50.8897C53.1692 49.3611 52.3874 46.1623 52.0678 43.7133C51.86 42.121 51.8182 40.6351 51.8218 39.6318C51.9414 39.6483 52.0625 39.6577 52.1851 39.6577C53.6273 39.6577 54.8007 38.4844 54.8007 37.0422C54.8007 36.8961 54.7883 36.7502 54.7639 36.6063C55.2811 36.1208 55.583 35.4399 55.583 34.7028C55.583 33.4129 54.6446 32.3383 53.4146 32.1254C53.0337 31.1469 52.0831 30.4608 50.9767 30.4608C49.8704 30.4608 48.9197 31.1469 48.5388 32.1254C47.309 32.3383 46.3704 33.4129 46.3704 34.7028C46.3704 35.44 46.6723 36.1208 47.1896 36.6063C47.1652 36.7502 47.1528 36.8961 47.1528 37.0422C47.1528 38.4843 48.3261 39.6577 49.7684 39.6577C49.865 39.6577 49.9606 39.6518 50.0555 39.6415C50.0443 42.043 50.2898 46.9506 52.2636 50.2495C49.9281 49.5949 47.753 48.6667 45.7587 47.4648C43.2243 45.9373 40.969 43.9678 39.0324 41.5971L42.1968 34.5932C42.3972 34.1497 42.2001 33.6275 41.7565 33.427C41.3131 33.2266 40.7908 33.4239 40.5903 33.8674L37.8189 40.0016C34.6948 35.5782 33.4636 31.2018 33.1413 29.8716C33.6776 29.2097 34.6505 27.7638 34.4596 26.1686C34.2044 24.0341 31.9871 22.6499 31.8929 22.5919C31.5445 22.3782 31.0946 22.4321 30.8063 22.7218C30.7283 22.8003 28.9 24.6684 29.1552 26.803C29.3543 28.4679 30.7471 29.6764 31.395 30.155C31.6984 31.4752 32.9491 36.1511 36.3583 40.9896C36.6624 41.4211 36.9758 41.8413 37.2976 42.2515C37.3078 42.2653 37.3188 42.2785 37.3299 42.2919C39.2016 44.6695 41.3694 46.6844 43.798 48.3054C41.6239 48.2752 39.6184 48.4354 38.5835 48.5378C38.2212 47.7955 37.5184 47.2485 36.6792 47.1033C36.2983 46.1248 35.3476 45.4387 34.2413 45.4387C33.1349 45.4387 32.1843 46.1248 31.8034 47.1033C30.5735 47.3161 29.6351 48.3909 29.6351 49.6807C29.6351 50.4179 29.9369 51.0987 30.4542 51.5842C30.4299 51.728 30.4174 51.874 30.4174 52.0201C30.4174 53.4622 31.5908 54.6356 33.033 54.6356C33.4599 54.6356 33.8724 54.5334 34.2413 54.3408C34.6103 54.5334 35.0227 54.6356 35.4495 54.6356C36.8916 54.6356 38.065 53.4623 38.065 52.0201C38.065 51.874 38.0527 51.7281 38.0282 51.5842C38.3985 51.2367 38.6577 50.7887 38.7754 50.2919C40.3732 50.1376 44.3892 49.8397 47.4837 50.3673C49.6626 51.3738 52.0055 52.1121 54.497 52.577C54.5393 52.5878 54.5819 52.5957 54.6249 52.6002C55.7972 52.8141 57.0012 52.9692 58.237 53.0621V58.2056H23.2249C23.9572 57.3403 24.4002 56.2226 24.4002 55.0028V18.5147C24.4002 18.0278 24.0055 17.6333 23.5187 17.6333C23.032 17.6333 22.6373 18.0278 22.6373 18.5147V32.1076C22.3279 32.7768 20.8067 35.7071 17.1783 37.5969C15.5703 36.8824 13.7402 34.9974 12.7292 33.8124C13.0853 33.3655 13.2989 32.8002 13.2989 32.1857C13.2989 32.0396 13.2865 31.8937 13.2621 31.7498C13.7793 31.2643 14.0812 30.5834 14.0812 29.8463C14.0812 28.5564 13.1428 27.4818 11.9128 27.2689C11.5319 26.2904 10.5813 25.6043 9.47491 25.6043C8.36867 25.6043 7.41803 26.2904 7.03714 27.2689C5.80715 27.4817 4.86873 28.5563 4.86873 29.8463C4.86873 30.5834 5.17053 31.2643 5.68774 31.7498C5.66341 31.8937 5.65096 32.0396 5.65096 32.1857C5.65096 33.6278 6.8243 34.8012 8.26654 34.8012C8.69338 34.8012 9.10577 34.6991 9.47479 34.5064C9.84381 34.6991 10.2562 34.8012 10.683 34.8012C10.8646 34.8012 11.0418 34.7826 11.2131 34.7472C11.9137 35.5886 13.4382 37.2985 15.1382 38.4545C14.0497 38.8131 12.8211 39.0721 11.4385 39.1808C10.9277 38.4714 9.8196 37.2059 8.27524 36.9619C6.15254 36.6272 4.21624 38.3832 4.13492 38.4581C3.83418 38.7352 3.76343 39.1827 3.96416 39.539C4.01845 39.6353 5.31825 41.9032 7.44165 42.2387C7.62651 42.2678 7.80961 42.2812 7.99048 42.2812C9.47632 42.2811 10.7919 41.3794 11.3284 40.9554C16.4166 40.6195 19.6567 38.4333 21.488 36.638C21.928 36.2066 22.3091 35.7779 22.637 35.3697V51.212C21.7717 50.4796 20.6539 50.0368 19.4341 50.0368H4.96568C3.74592 50.0368 2.62816 50.4796 1.76284 51.212V42.8184C1.76284 42.3315 1.3682 41.937 0.88142 41.937C0.394641 41.937 0 42.3316 0 42.8184V55.0026C0 57.7407 2.22764 59.9682 4.96568 59.9682H19.4344H59.1186C59.6054 59.9682 60 59.5737 60 59.0868V37.3401C60 36.8533 59.6054 36.4587 59.1186 36.4587ZM48.9159 37.0423C48.9159 36.9067 48.9465 36.7773 49.007 36.6579C49.1136 36.4478 49.1316 36.2039 49.0571 35.9805C48.9826 35.7571 48.8218 35.5727 48.6105 35.4687C48.3163 35.3237 48.1335 35.0303 48.1335 34.7028C48.1335 34.2325 48.516 33.85 48.9862 33.85C49.0289 33.85 49.072 33.8532 49.1146 33.8596C49.3606 33.896 49.6108 33.8276 49.8033 33.6699C49.9958 33.5123 50.1127 33.2807 50.1253 33.0322C50.1481 32.5788 50.522 32.2236 50.9768 32.2236C51.4317 32.2236 51.8056 32.5788 51.8284 33.0322C51.8409 33.2806 51.9579 33.5123 52.1504 33.6699C52.3429 33.8276 52.5928 33.8961 52.8391 33.8596C52.8817 33.8532 52.9248 33.85 52.9674 33.85C53.4377 33.85 53.8202 34.2325 53.8202 34.7028C53.8202 35.0302 53.6374 35.3236 53.3432 35.4687C53.1319 35.5728 52.9711 35.7571 52.8966 35.9805C52.8221 36.2038 52.84 36.4478 52.9466 36.6579C53.0072 36.7773 53.0378 36.9065 53.0378 37.0423C53.0378 37.5125 52.6553 37.895 52.1851 37.895C51.962 37.895 51.7511 37.8095 51.591 37.6539C51.5894 37.6523 51.5877 37.651 51.5861 37.6495C51.574 37.638 51.5612 37.6273 51.5485 37.6164C51.5392 37.6084 51.5301 37.6 51.5206 37.5925C51.5088 37.5832 51.4961 37.5748 51.4837 37.5661C51.4726 37.5582 51.4617 37.55 51.4503 37.5427C51.4391 37.5355 51.4272 37.5293 51.4156 37.5226C51.4024 37.5151 51.3896 37.5071 51.3762 37.5003C51.365 37.4946 51.3534 37.4899 51.342 37.4848C51.3274 37.4782 51.3131 37.4712 51.2984 37.4654C51.2871 37.4609 51.2754 37.4575 51.2638 37.4535C51.2483 37.4482 51.2329 37.4426 51.2172 37.4382C51.2059 37.435 51.1943 37.4327 51.1827 37.43C51.1662 37.426 51.1496 37.422 51.1329 37.4189C51.1216 37.4169 51.1102 37.4156 51.0987 37.4141C51.0813 37.4117 51.0638 37.4094 51.0463 37.408C51.0425 37.4077 51.0389 37.407 51.0351 37.4067C51.0249 37.406 51.0149 37.4065 51.0048 37.4061C50.9955 37.4058 50.9861 37.4048 50.9768 37.4048C50.9733 37.4048 50.9698 37.4053 50.9663 37.4053C50.945 37.4054 50.924 37.4066 50.903 37.4082C50.8982 37.4086 50.8934 37.4089 50.8887 37.4094C50.8629 37.4119 50.8373 37.4155 50.8121 37.4202C50.8117 37.4203 50.8114 37.4204 50.811 37.4205C50.6991 37.4415 50.5945 37.4839 50.5014 37.544C50.5001 37.5448 50.4989 37.5456 50.4977 37.5465C50.4753 37.5611 50.4534 37.5768 50.4324 37.5933C50.4302 37.595 50.428 37.5968 50.4259 37.5985C50.4057 37.6147 50.3863 37.6319 50.3676 37.6499C50.366 37.6514 50.3642 37.6527 50.3627 37.6542C50.2026 37.8097 49.9917 37.8954 49.7686 37.8954C49.2983 37.895 48.9159 37.5125 48.9159 37.0423ZM31.5773 24.5616C32.0673 25.0021 32.6238 25.6633 32.7094 26.3779C32.7948 27.0925 32.4099 27.8661 32.0382 28.4092C31.5728 27.9954 30.9953 27.3427 30.9056 26.5936C30.8202 25.8787 31.2053 25.1047 31.5773 24.5616ZM36.6077 50.4461C36.3964 50.5502 36.2356 50.7345 36.161 50.9578C36.0865 51.1812 36.1045 51.4253 36.2108 51.6353C36.2715 51.7548 36.3021 51.8842 36.3021 52.02C36.3021 52.4902 35.9196 52.8727 35.4495 52.8727C35.2265 52.8727 35.0156 52.787 34.8556 52.6315C34.6846 52.4652 34.4629 52.3822 34.2412 52.3822C34.0195 52.3822 33.7979 52.4652 33.6267 52.6315C33.4668 52.787 33.2558 52.8727 33.0328 52.8727C32.5626 52.8727 32.18 52.4902 32.18 52.02C32.18 51.8843 32.2107 51.7548 32.2714 51.6353C32.3778 51.4253 32.3958 51.1813 32.3212 50.9578C32.2467 50.7345 32.0859 50.5501 31.8746 50.4461C31.5804 50.3013 31.3977 50.0078 31.3977 49.6804C31.3977 49.2102 31.7802 48.8277 32.2504 48.8277C32.2936 48.8277 32.3368 48.8309 32.3788 48.8372C32.6247 48.8733 32.875 48.805 33.0675 48.6474C33.26 48.4898 33.3769 48.2583 33.3895 48.0097C33.4123 47.5564 33.7862 47.2013 34.241 47.2013C34.6957 47.2013 35.0698 47.5564 35.0926 48.0097C35.1051 48.2582 35.2221 48.4898 35.4145 48.6474C35.607 48.805 35.857 48.8736 36.1032 48.8372C36.1453 48.8309 36.1886 48.8277 36.2318 48.8277C36.7018 48.8277 37.0844 49.2102 37.0844 49.6804C37.0846 50.0078 36.9019 50.3012 36.6077 50.4461ZM9.47491 32.548C9.25326 32.548 9.03173 32.6311 8.86074 32.7972C8.70067 32.9527 8.48972 33.0384 8.26666 33.0384C7.79645 33.0384 7.41391 32.6559 7.41391 32.1857C7.41391 32.0502 7.44459 31.9208 7.50511 31.8012C7.6117 31.5912 7.62969 31.3473 7.55518 31.1238C7.48067 30.9004 7.3199 30.716 7.10859 30.612C6.81431 30.4671 6.63157 30.1737 6.63157 29.8461C6.63157 29.3759 7.0141 28.9934 7.48419 28.9934C7.52685 28.9934 7.5701 28.9966 7.61276 29.003C7.85839 29.0393 8.10894 28.9708 8.30145 28.8132C8.49395 28.6556 8.61088 28.424 8.62334 28.1755C8.64614 27.7221 9.02021 27.367 9.47491 27.367C9.92972 27.367 10.3037 27.722 10.3265 28.1755C10.3389 28.424 10.456 28.6556 10.6485 28.8132C10.841 28.9708 11.0911 29.0395 11.3372 29.003C11.3797 28.9966 11.4228 28.9934 11.4655 28.9934C11.9357 28.9934 12.3183 29.3759 12.3183 29.8461C12.3183 30.1736 12.1355 30.467 11.8412 30.612C11.6299 30.7162 11.4691 30.9004 11.3946 31.1238C11.3201 31.3471 11.3381 31.5912 11.4447 31.8012C11.5052 31.9206 11.5359 32.0499 11.5359 32.1857C11.5359 32.6559 11.1534 33.0384 10.6832 33.0384C10.4601 33.0384 10.2491 32.9527 10.0891 32.7972C9.9182 32.6311 9.69656 32.548 9.47491 32.548ZM7.71701 40.4973C7.00611 40.3851 6.36644 39.8042 5.945 39.2986C6.46974 38.9634 7.25502 38.585 8.00035 38.7031C8.71148 38.8155 9.35139 39.3967 9.77283 39.9025C9.21565 40.2542 8.42802 40.6099 7.71701 40.4973ZM1.76284 55.0026C1.76284 53.2364 3.19967 51.7996 4.96568 51.7996H19.4344C21.2004 51.7996 22.6372 53.2364 22.6372 55.0026C22.6372 56.7686 21.2004 58.2054 19.4344 58.2054H4.96568C3.19967 58.2054 1.76284 56.7686 1.76284 55.0026Z" fill="white"/>
<path d="M59.1186 4.615H24.3839C24.1879 2.05512 22.0437 0.0316162 19.4344 0.0316162H4.96568C2.22764 0.0316162 0 2.25926 0 4.9973V39.2926C0 39.7795 0.394641 40.1741 0.88142 40.1741C1.3682 40.1741 1.76284 39.7795 1.76284 39.2926V12.1837C4.1368 15.3595 8.93795 20.7925 15.2318 22.8312C15.3221 22.8605 15.4136 22.8744 15.5036 22.8744C15.8754 22.8744 16.2212 22.6372 16.3419 22.2644C16.4919 21.8014 16.2381 21.3043 15.7751 21.1543C13.2158 20.3253 10.896 18.8492 8.90915 17.2018C11.595 16.2877 14.268 14.3201 15.1426 13.642C15.288 13.6527 15.4661 13.6611 15.6684 13.6611C16.5908 13.6611 18.0055 13.4871 19.0157 12.5633C19.0157 12.5633 19.0157 12.5633 19.0159 12.5633C20.6023 11.1125 20.4361 8.50382 20.4283 8.39359C20.3992 7.98567 20.0934 7.65131 19.6897 7.58597C19.5804 7.56858 16.9971 7.17029 15.4106 8.62088C14.2181 9.71137 14.016 11.456 13.9924 12.302C13.5709 12.625 12.7747 13.212 11.794 13.8228C10.0973 14.8793 8.56998 15.5587 7.34164 15.8083C4.28476 12.9038 2.27007 9.88319 1.76284 9.08885V4.9973C1.76284 3.23129 3.19967 1.79446 4.96568 1.79446H19.4344C21.2004 1.79446 22.6372 3.23129 22.6372 4.9973V14.989C22.6372 15.4759 23.0318 15.8704 23.5186 15.8704C24.0054 15.8704 24.4 15.4759 24.4 14.989V6.37784H33.9054C34.6676 7.58362 36.9615 10.9733 39.8497 13.0244C39.3422 13.5018 39.0235 14.1777 39.0235 14.9277C39.0235 15.6649 39.3253 16.3458 39.8426 16.8312C39.8183 16.9752 39.8059 17.1211 39.8059 17.2671C39.8059 18.7093 40.9792 19.8827 42.4213 19.8827C42.8482 19.8827 43.2605 19.7806 43.6296 19.5879C43.9986 19.7806 44.411 19.8827 44.8378 19.8827C46.2801 19.8827 47.4534 18.7094 47.4534 17.2671C47.4534 17.1211 47.4411 16.9751 47.4166 16.8312C47.9338 16.3458 48.2357 15.6649 48.2357 14.9277C48.2357 13.6379 47.2973 12.5633 46.0673 12.3503C45.6864 11.3718 44.7358 10.6857 43.6295 10.6857C42.6859 10.6857 41.8569 11.1859 41.3966 11.9398C39.1257 10.5307 37.1168 7.94982 36.025 6.37784H58.2372V33.8143C58.2372 34.3012 58.6318 34.6957 59.1186 34.6957C59.6054 34.6957 60 34.3012 60 33.8143V5.49642C60 5.00952 59.6054 4.615 59.1186 4.615ZM16.6002 9.92162C17.1315 9.43566 17.9851 9.29804 18.6432 9.28406C18.5706 9.93901 18.3573 10.7764 17.8261 11.2621C17.2947 11.748 16.4412 11.8857 15.7831 11.8996C15.8557 11.2447 16.069 10.4073 16.6002 9.92162ZM43.6299 12.4486C44.0847 12.4486 44.4587 12.8036 44.4815 13.2571C44.4939 13.5056 44.611 13.7372 44.8035 13.8948C44.9959 14.0524 45.246 14.1213 45.4922 14.0846C45.5347 14.0782 45.5779 14.075 45.6205 14.075C46.0907 14.075 46.4733 14.4575 46.4733 14.9277C46.4733 15.2551 46.2905 15.5485 45.9964 15.6934C45.785 15.7975 45.6242 15.9818 45.5498 16.2052C45.4753 16.4286 45.4932 16.6727 45.5996 16.8827C45.6602 17.0022 45.6909 17.1316 45.6909 17.2672C45.6909 17.7375 45.3084 18.12 44.8382 18.12C44.6152 18.12 44.4042 18.0343 44.2441 17.8788C44.0731 17.7127 43.8516 17.6296 43.6299 17.6296C43.4083 17.6296 43.1866 17.7127 43.0156 17.8788C42.8556 18.0343 42.6446 18.12 42.4216 18.12C41.9515 18.12 41.5689 17.7375 41.5689 17.2672C41.5689 17.1316 41.5996 17.0021 41.6602 16.8827C41.7667 16.6727 41.7847 16.4287 41.7101 16.2052C41.6356 15.9819 41.4747 15.7975 41.2634 15.6934C40.9692 15.5486 40.7865 15.2551 40.7865 14.9277C40.7865 14.4575 41.169 14.075 41.6391 14.075C41.6817 14.075 41.7249 14.0782 41.7674 14.0846C41.7725 14.0853 41.7775 14.0854 41.7826 14.086C41.8014 14.0885 41.8201 14.0901 41.839 14.0913C41.8504 14.092 41.8618 14.0928 41.8732 14.0932C41.8812 14.0934 41.8892 14.0945 41.8972 14.0945C41.9055 14.0945 41.9137 14.093 41.9221 14.0927C41.9461 14.092 41.9699 14.0903 41.9937 14.0877C42.0067 14.0863 42.0199 14.0852 42.0328 14.0832C42.0676 14.0778 42.102 14.0706 42.1359 14.0611C42.1447 14.0586 42.153 14.0552 42.1617 14.0525C42.1886 14.0441 42.2151 14.0346 42.2412 14.0235C42.2524 14.0188 42.2634 14.0138 42.2744 14.0085C42.2991 13.9968 42.3232 13.9839 42.3469 13.9698C42.3556 13.9646 42.3646 13.96 42.373 13.9545C42.4017 13.9362 42.4297 13.9164 42.4562 13.8947C42.4579 13.8933 42.4593 13.8918 42.4609 13.8905C42.4686 13.8841 42.4755 13.8771 42.4829 13.8705C42.5037 13.8519 42.5236 13.8328 42.5424 13.8126C42.5511 13.8032 42.5596 13.7936 42.568 13.7838C42.5876 13.7606 42.6061 13.7366 42.6232 13.7117C42.6275 13.7055 42.6323 13.6997 42.6364 13.6934C42.6573 13.6612 42.6758 13.6275 42.6923 13.5929C42.694 13.5895 42.6961 13.5867 42.6976 13.5833C42.7021 13.5737 42.7052 13.564 42.7092 13.5544C42.715 13.5407 42.7208 13.5272 42.7258 13.5132C42.7316 13.4974 42.7365 13.4814 42.7413 13.4653C42.745 13.4531 42.7489 13.4411 42.7519 13.4287C42.7567 13.4099 42.7604 13.391 42.7639 13.3721C42.7658 13.362 42.768 13.352 42.7695 13.3418C42.7728 13.3199 42.7747 13.298 42.7764 13.2763C42.7768 13.2698 42.778 13.2635 42.7784 13.257C42.801 12.8039 43.1751 12.4486 43.6299 12.4486Z" fill="white"/>
<path d="M9.46595 29.5079C8.88857 29.5079 8.41895 29.9777 8.41895 30.5549C8.41895 31.1322 8.88868 31.602 9.46595 31.602C10.0432 31.602 10.513 31.1322 10.513 30.5549C10.5131 29.9778 10.0433 29.5079 9.46595 29.5079Z" fill="white"/>
<path d="M52.0149 35.4116C52.0149 34.8344 51.5453 34.3646 50.9679 34.3646C50.3905 34.3646 49.9209 34.8344 49.9209 35.4116C49.9209 35.9889 50.3906 36.4586 50.9679 36.4586C51.5452 36.4586 52.0149 35.9889 52.0149 35.4116Z" fill="white"/>
<path d="M34.2326 49.342C33.6552 49.342 33.1855 49.8118 33.1855 50.389C33.1855 50.9663 33.6553 51.4361 34.2326 51.4361C34.8099 51.4361 35.2796 50.9663 35.2796 50.389C35.2796 49.8118 34.8098 49.342 34.2326 49.342Z" fill="white"/>
<path d="M43.6212 16.6836C44.1995 16.6836 44.6682 16.2149 44.6682 15.6366C44.6682 15.0584 44.1995 14.5896 43.6212 14.5896C43.043 14.5896 42.5742 15.0584 42.5742 15.6366C42.5742 16.2149 43.043 16.6836 43.6212 16.6836Z" fill="white"/>
</svg>
