<svg width="60" height="60" viewBox="0 0 60 60" fill="none" xmlns="http://www.w3.org/2000/svg">
<path d="M53.4 3H40.2H19.8H6.6C4.62 3 3 4.62 3 6.6V13.38C3 14.88 3.9 16.2 5.28 16.74L9 18.24V36.72C9 37.26 9 37.92 9.12 38.58C9.78 46.14 14.82 52.98 22.5 56.94C22.68 57 22.86 57.06 23.04 57.06H36.96C37.14 57.06 37.32 57 37.5 56.94C45.24 52.98 50.22 46.14 50.88 38.58C51 37.86 51 37.2 51 36.66V18.24L54.72 16.74C56.1 16.2 57 14.88 57 13.38V6.6C57 4.62 55.38 3 53.4 3ZM39 5.4C38.7 10.08 34.8 13.8 30 13.8C25.26 13.8 21.3 10.08 21 5.4H39ZM11.64 39.6H12C16.26 39.6 20.04 42.48 21.24 46.56C21.48 47.46 21.6 48.36 21.6 49.2V53.58C16.26 50.22 12.6 45.06 11.64 39.6ZM36 49.2V54.6H24V49.2C24 48.6 23.94 48 23.88 47.4H36.18C36.06 48 36 48.6 36 49.2ZM38.4 53.58V49.2C38.4 48.3 38.52 47.4 38.76 46.56C39.96 42.48 43.74 39.6 48 39.6H48.36C47.4 45.06 43.74 50.22 38.4 53.58ZM54.6 13.38C54.6 13.86 54.3 14.34 53.82 14.52L49.32 16.32C48.84 16.5 48.54 16.92 48.54 17.46V36.72V37.26H47.94C42.96 37.26 38.46 40.44 36.72 45.06H23.22C21.48 40.38 16.98 37.2 12 37.2H11.4C11.4 37.02 11.4 36.84 11.4 36.66V17.4C11.4 16.92 11.1 16.44 10.62 16.26L6.12 14.46C5.64 14.28 5.34 13.86 5.34 13.32V6.6C5.34 5.94 5.88 5.4 6.54 5.4H18.6C18.9 11.4 23.88 16.2 29.94 16.2C36 16.2 40.98 11.4 41.28 5.4H53.4C54.06 5.4 54.6 5.94 54.6 6.6V13.38ZM34.44 19.8C32.88 19.74 31.26 20.22 30 21.12C28.8 20.28 27.42 19.8 25.92 19.8C25.8 19.8 25.68 19.8 25.56 19.8C23.28 19.92 21.3 21.36 20.46 23.52C19.56 25.74 20.1 28.2 21.72 29.88L29.1 37.44C29.34 37.68 29.64 37.8 29.94 37.8C30.24 37.8 30.6 37.68 30.78 37.44L38.16 29.88C39.84 28.2 40.32 25.74 39.42 23.52C38.7 21.36 36.72 19.92 34.44 19.8ZM36.54 28.2L30 34.86L23.46 28.2C22.26 27 22.26 25.44 22.68 24.36C23.16 23.04 24.3 22.26 25.68 22.2H25.92C27.12 22.2 28.26 22.68 29.1 23.58C29.34 23.82 29.64 23.94 29.94 23.94C30.24 23.94 30.6 23.82 30.78 23.58C31.68 22.62 32.94 22.14 34.2 22.2C35.58 22.26 36.66 23.1 37.2 24.36C37.68 25.44 37.74 27 36.54 28.2Z" fill="#407FF0"/>
</svg>
