<svg width="60" height="60" viewBox="0 0 60 60" fill="none" xmlns="http://www.w3.org/2000/svg">
<g clip-path="url(#clip0)">
<path d="M59.88 18.3403C59.871 18.0266 59.6953 17.7415 59.4192 17.5923C58.5557 17.1257 57.7503 16.491 57.0258 15.7057C56.6966 15.3491 56.1406 15.3266 55.7838 15.6559C55.4271 15.9851 55.4048 16.5411 55.734 16.8979C56.4656 17.6906 57.2721 18.3565 58.1366 18.8822C58.4203 29.3851 58.1316 40.0185 57.2774 50.511C47.1599 51.9156 36.9151 52.1222 26.7904 51.1281C27.0032 50.8944 27.2256 50.6661 27.4578 50.4438C30.4951 47.5353 34.8406 45.9258 39.3778 46.0301C39.6251 46.0374 39.8583 45.9392 40.0286 45.7636C40.199 45.5881 40.2884 45.3496 40.2756 45.1053C40.1418 42.5632 39.8226 39.9827 39.3266 37.4353C39.2501 37.0424 38.9179 36.7508 38.5185 36.7261C32.6282 36.3599 26.6978 36.1724 20.766 36.1598C20.5809 30.4225 20.5637 24.6172 20.719 18.8823C22.7948 17.6222 24.4802 15.6069 25.7337 12.8841C27.0428 10.0403 27.8436 6.48638 28.117 2.31091C29.338 2.20357 30.568 2.1131 31.7906 2.04032C31.8297 6.49364 33.1635 10.5749 35.3599 12.8522C36.5593 14.0958 37.9648 14.7559 39.4302 14.7607C40.8904 14.7559 42.2963 14.0957 43.496 12.8518C45.6921 10.5745 47.0261 6.49353 47.0651 2.04032C48.2878 2.11298 49.5178 2.20357 50.7388 2.31091C51.0467 7.01361 52.0187 10.9124 53.6314 13.9081C53.8614 14.3355 54.3943 14.4955 54.8219 14.2654C55.2493 14.0354 55.4092 13.5023 55.1792 13.0749C53.605 10.1507 52.6871 6.24309 52.4507 1.46082C52.4291 1.02429 52.0901 0.66991 51.655 0.629128C49.8529 0.46014 48.0245 0.326661 46.2208 0.232793C45.9756 0.219784 45.7351 0.310841 45.5595 0.483109C45.3838 0.655495 45.2885 0.893507 45.2965 1.13949C45.44 5.50164 44.2653 9.52194 42.2306 11.6317C41.3562 12.5383 40.4119 12.9997 39.4301 13.0029C38.4429 12.9997 37.4991 12.5385 36.6249 11.6321C34.5902 9.52229 33.4153 5.50163 33.559 1.13937C33.5671 0.89339 33.4717 0.655378 33.296 0.482992C33.1204 0.310724 32.8804 0.220488 32.6347 0.232675C30.831 0.326661 29.0026 0.460023 27.2005 0.62901C26.7654 0.66991 26.4264 1.02429 26.4048 1.46082C26.0009 9.65026 23.5258 15.3793 19.4357 17.5924C19.1598 17.7416 18.9844 18.0266 18.9754 18.3401C18.8051 24.2522 18.8173 30.2425 19.0072 36.1617C13.2434 36.1835 7.48188 36.3702 1.75811 36.726C1.35861 36.7507 1.02638 37.0424 0.949969 37.4352C0.454375 39.9826 0.135033 42.5632 0.00120276 45.1054C-0.0115709 45.3496 0.0778447 45.5883 0.248238 45.7637C0.418632 45.9393 0.653011 46.0366 0.899109 46.0302C3.17411 45.9781 5.37845 46.3437 7.44907 47.1174C7.90411 47.2874 8.41014 47.0563 8.58006 46.6018C8.74999 46.1471 8.51913 45.6407 8.06443 45.4708C6.0749 44.7273 3.97639 44.3257 1.81354 44.2733C1.9503 42.3353 2.19722 40.3794 2.54996 38.4389C14.2253 37.7408 26.0514 37.7408 37.7269 38.4389C38.0797 40.3798 38.3265 42.3358 38.4633 44.274C33.8097 44.3925 29.3988 46.1513 26.2419 49.1742C23.6771 51.6303 22.1384 54.7385 21.8518 58.0051C20.7119 58.0121 19.5646 58.0121 18.4245 58.0051C18.0415 53.6955 15.4503 49.666 11.364 47.0969C10.9532 46.8386 10.4106 46.9621 10.1522 47.3731C9.89376 47.7841 10.0175 48.3267 10.4284 48.585C14.2812 51.0074 16.6309 54.8619 16.7137 58.8958C16.7234 59.371 17.1092 59.7524 17.5846 59.7567C18.4318 59.7643 19.2851 59.7681 20.1384 59.7681C20.9916 59.7681 21.8449 59.7643 22.6921 59.7567C23.1675 59.7524 23.5533 59.371 23.563 58.8958C23.6072 56.7395 24.2878 54.6337 25.5186 52.763C30.1306 53.2554 34.767 53.5039 39.4089 53.5039C45.6912 53.5038 51.982 53.0531 58.2211 52.1527C58.6261 52.0942 58.9372 51.764 58.9713 51.3562C59.8892 40.409 60.1949 29.3008 59.88 18.3403Z" fill="#407FF0"/>
</g>
<defs>
<clipPath id="clip0">
<rect width="60" height="60" fill="white"/>
</clipPath>
</defs>
</svg>
