<svg width="29" height="29" viewBox="0 0 29 29" fill="none" xmlns="http://www.w3.org/2000/svg">
<g clip-path="url(#clip0)">
<path d="M2.54954 6.27319C1.61609 7.62804 0.906705 9.14931 0.476562 10.7844H7.06097L2.54954 6.27319Z" fill="#29337A"/>
<path d="M10.4215 0.579346C8.75377 1.06504 7.20922 1.84007 5.84912 2.85095L10.4215 7.42337V0.579346Z" fill="#29337A"/>
<path d="M6.18896 26.3403C7.46473 27.2331 8.89004 27.9242 10.4213 28.3701V22.1086L6.18896 26.3403Z" fill="#29337A"/>
<path d="M0.643066 18.749C1.12168 20.2993 1.85508 21.7376 2.79238 23.017L7.06037 18.749H0.643066Z" fill="#29337A"/>
<path d="M2.78782 5.93726C2.7069 6.04788 2.62715 6.16009 2.54898 6.27346L7.06041 10.7846H0.476004C0.369293 11.1908 0.282201 11.6047 0.210449 12.0243H8.8754L2.78782 5.93726Z" fill="white"/>
<path d="M5.85303 26.1015C5.96316 26.1836 6.07635 26.2617 6.18874 26.3404L10.4211 22.1085V28.37C10.8277 28.4888 11.2407 28.5915 11.6608 28.674V20.2939L5.85303 26.1015Z" fill="white"/>
<path d="M0.320801 17.5093C0.410643 17.9293 0.516681 18.343 0.642155 18.749H7.05952L2.79153 23.017C3.25571 23.6512 3.77044 24.2464 4.32972 24.7967L11.6171 17.5093H0.320801Z" fill="white"/>
<path d="M10.421 0.579388V7.42342L5.84856 2.85124C5.2182 3.32001 4.62897 3.84042 4.08301 4.4038L11.6605 11.9813V0.275391C11.2406 0.358388 10.8277 0.461248 10.421 0.579388Z" fill="white"/>
<path d="M10.4214 18.7053L10.3779 18.749H10.4214V18.7053Z" fill="#D32030"/>
<path d="M11.6177 17.5095H11.6611V17.4658L11.6177 17.5095Z" fill="#D32030"/>
<path d="M17.1883 12.0242H17.1465V12.0662L17.1883 12.0242Z" fill="#D32030"/>
<path d="M10.4641 10.7847L10.4214 10.7417V10.7847H10.4641Z" fill="#D32030"/>
<path d="M11.6611 11.9814V12.0242H11.7039L11.6611 11.9814Z" fill="#D32030"/>
<path d="M18.3853 25.1657V28.4104C19.9365 27.9762 21.3827 27.2917 22.6764 26.3999L19.1605 22.884C18.8796 23.8711 18.7768 24.3815 18.3853 25.1657Z" fill="#252F6C"/>
<path d="M19.179 6.62933L23.0171 2.79123C21.6383 1.78145 20.074 1.01193 18.3853 0.538818V3.87203C18.8367 4.77595 18.8746 5.46279 19.179 6.62933Z" fill="#252F6C"/>
<path d="M26.0984 23.1014C27.065 21.8011 27.8183 20.3334 28.3076 18.749H21.7461L26.0984 23.1014Z" fill="#252F6C"/>
<path d="M28.4735 10.7845C28.0342 9.11489 27.3035 7.56508 26.3406 6.18896L21.7446 10.7845H28.4735Z" fill="#252F6C"/>
<path d="M20.0244 17.7545L21.0191 18.7492L25.7803 23.5104C25.8884 23.3751 25.9958 23.2403 26.0992 23.1016L21.7468 18.7492H28.3084C28.4334 18.3435 28.5396 17.9296 28.6292 17.5095H20.1174C20.1035 17.6853 20.0411 17.5799 20.0244 17.7545Z" fill="#E7E7E7"/>
<path d="M19.029 7.35525L23.3443 3.03946C23.2362 2.9556 23.1279 2.87218 23.0175 2.79126L19.1794 6.62936C19.2191 6.78111 18.992 7.19983 19.029 7.35525Z" fill="#E7E7E7"/>
<path d="M18.3857 3.6054V0.538657C17.9796 0.424857 17.5661 0.328414 17.146 0.249756V1.74566C17.6072 2.24572 18.0207 2.87382 18.3857 3.6054Z" fill="#E7E7E7"/>
<path d="M19.927 12.0239H28.7398C28.6682 11.6043 28.5809 11.1906 28.4742 10.7842H21.7453L26.3414 6.18872C25.8895 5.54326 25.3874 4.93624 24.8389 4.37378L19.6621 9.55004C19.8015 10.489 19.8639 11.0343 19.927 12.0239Z" fill="#E7E7E7"/>
<path d="M18.9521 22.6746L22.6774 26.4002C23.297 25.9735 23.8805 25.4985 24.4249 24.983L19.5249 20.0828C19.3685 20.989 19.183 21.8643 18.9521 22.6746Z" fill="#E7E7E7"/>
<path d="M17.1465 27.0322V28.6994C17.5665 28.6213 17.9798 28.5243 18.3862 28.4105V25.1658C18.0209 25.8977 17.6075 26.5328 17.1465 27.0322Z" fill="#E7E7E7"/>
<path d="M19.662 9.55012L24.8383 4.37386C24.3723 3.89525 23.8726 3.44983 23.3442 3.03955L19.2769 7.10757C19.4576 7.86317 19.5397 8.72803 19.662 9.55012Z" fill="#D71F28"/>
<path d="M13.7524 0.0178462C13.9936 0.00617284 14.234 0 14.4747 0C14.2326 0 13.9918 0.00617284 13.7524 0.0178462Z" fill="#D32030"/>
<path d="M14.4747 28.9499C14.234 28.9499 13.9936 28.9433 13.7529 28.9316C13.9923 28.9437 14.2327 28.9499 14.4747 28.9499Z" fill="#D32030"/>
<path d="M14.4746 28.95C15.3879 28.95 16.2797 28.8616 17.1459 28.6995V27.0322C16.3856 27.8564 15.4961 28.95 14.4746 28.95Z" fill="#D32030"/>
<path d="M28.7394 12.0239H20.0411C20.1563 13.8394 20.1424 15.7062 19.9995 17.5092H28.6293C28.8382 16.5303 28.9501 15.516 28.9501 14.4752C28.9501 13.6391 28.8756 12.8213 28.7394 12.0239Z" fill="#D71F28"/>
<path d="M20.0245 17.7544C19.944 18.6097 19.6638 19.2761 19.5244 20.0829L24.4244 24.9829C24.9091 24.5234 25.3623 24.0321 25.7801 23.5103L21.0191 18.7488L20.0245 17.7544Z" fill="#D71F28"/>
<path d="M17.146 1.85332V0.250031C16.28 0.0884367 15.3882 0 14.4746 0C15.4961 0 16.3856 1.0294 17.146 1.85332Z" fill="#D32030"/>
<path d="M18.3853 25.7921C18.7768 25.0077 19.1125 24.1047 19.3936 23.1177L18.3853 22.1094V25.7921Z" fill="#29337A"/>
<path d="M19.5191 6.28943C19.2142 5.12288 18.8367 4.06237 18.3853 3.15845V7.42279L19.5191 6.28943Z" fill="#29337A"/>
<path d="M20.3052 18.0352C20.3217 17.8606 20.3365 17.6853 20.3507 17.5093H19.7793L20.3052 18.0352Z" fill="white"/>
<path d="M18.3857 7.42265V3.15808C18.0205 2.4265 17.6072 1.79797 17.146 1.29834V9.23783L19.6356 6.74822C19.5981 6.5928 19.5588 6.44056 19.5195 6.2888L18.3857 7.42265Z" fill="white"/>
<path d="M17.188 12.024H20.3923C20.3295 11.0344 20.2294 10.0608 20.0901 9.12207L17.188 12.024Z" fill="white"/>
<path d="M17.1465 27.6512C17.6077 27.1512 18.0209 26.5231 18.3862 25.7915V22.1088L19.3946 23.1172C19.6258 22.3065 19.8199 21.4405 19.9767 20.5343L17.1465 17.7043L17.1465 27.6512Z" fill="white"/>
<path d="M17.1461 27.6514V17.7045L19.9761 20.5347C20.1153 19.7276 20.2248 18.8907 20.305 18.0352L19.7791 17.5093H20.3504C20.4933 15.7062 20.5072 13.8394 20.3921 12.024H17.1877L20.0897 9.12205C19.9674 8.29972 19.8162 7.50434 19.6354 6.7485L17.1462 9.23811V1.29862C16.3857 0.474453 15.4962 0 14.4748 0C14.2341 0 13.9936 0.00617284 13.7525 0.0178462C13.0406 0.0534776 12.3424 0.141059 11.6608 0.275455V11.9813L4.08312 4.4038C3.61753 4.88424 3.18445 5.39616 2.78811 5.93717L7.6355 10.7846L8.87563 12.0243H0.210732C0.0749908 12.8214 0 13.6392 0 14.4752C0 15.5163 0.112456 16.5304 0.320865 17.5093H11.6174L4.32997 24.7967C4.80717 25.2655 5.31524 25.702 5.85307 26.1015L11.6606 20.294V28.6741C12.3421 28.8085 13.0408 28.896 13.7528 28.9317C13.9935 28.9434 14.2339 28.95 14.4746 28.95C15.4962 28.95 16.3857 28.4755 17.1461 27.6514Z" fill="#E51D35"/>
</g>
<defs>
<clipPath id="clip0">
<rect width="28.95" height="28.95" fill="white"/>
</clipPath>
</defs>
</svg>
