<svg width="20" height="24" viewBox="0 0 20 24" fill="none" xmlns="http://www.w3.org/2000/svg">
<path fill-rule="evenodd" clip-rule="evenodd" d="M0.0839844 10.0374C0.0839844 4.67085 4.56851 0.333313 9.99301 0.333313C15.4328 0.333313 19.9173 4.67085 19.9173 10.0374C19.9173 12.7416 18.9338 15.2522 17.3151 17.3802C15.5293 19.7274 13.3282 21.7725 10.8506 23.3778C10.2836 23.7488 9.77184 23.7768 9.14951 23.3778C6.65784 21.7725 4.45675 19.7274 2.68623 17.3802C1.0663 15.2522 0.0839844 12.7416 0.0839844 10.0374ZM6.72727 10.3395C6.72727 12.1373 8.19427 13.5513 9.99302 13.5513C11.793 13.5513 13.2741 12.1373 13.2741 10.3395C13.2741 8.55575 11.793 7.07295 9.99302 7.07295C8.19427 7.07295 6.72727 8.55575 6.72727 10.3395Z" fill="#407FF0"/>
</svg>
