<svg width="60" height="60" viewBox="0 0 60 60" fill="none" xmlns="http://www.w3.org/2000/svg">
<path d="M39.7852 36.1523C40.2706 36.1523 40.6641 35.7588 40.6641 35.2734C40.6641 34.788 40.2706 34.3945 39.7852 34.3945C39.2997 34.3945 38.9062 34.788 38.9062 35.2734C38.9062 35.7588 39.2997 36.1523 39.7852 36.1523Z" fill="#407FF0"/>
<path d="M43.3008 32.6367C43.7862 32.6367 44.1797 32.2432 44.1797 31.7578C44.1797 31.2724 43.7862 30.8789 43.3008 30.8789C42.8154 30.8789 42.4219 31.2724 42.4219 31.7578C42.4219 32.2432 42.8154 32.6367 43.3008 32.6367Z" fill="#407FF0"/>
<path d="M43.3008 39.668C43.7862 39.668 44.1797 39.2745 44.1797 38.7891C44.1797 38.3037 43.7862 37.9102 43.3008 37.9102C42.8154 37.9102 42.4219 38.3037 42.4219 38.7891C42.4219 39.2745 42.8154 39.668 43.3008 39.668Z" fill="#407FF0"/>
<path d="M46.8164 36.1523C47.3018 36.1523 47.6953 35.7588 47.6953 35.2734C47.6953 34.788 47.3018 34.3945 46.8164 34.3945C46.331 34.3945 45.9375 34.788 45.9375 35.2734C45.9375 35.7588 46.331 36.1523 46.8164 36.1523Z" fill="#407FF0"/>
<path d="M48.5742 52.9688C49.0596 52.9688 49.4531 52.5753 49.4531 52.0898C49.4531 51.6044 49.0596 51.2109 48.5742 51.2109C48.0888 51.2109 47.6953 51.6044 47.6953 52.0898C47.6953 52.5753 48.0888 52.9688 48.5742 52.9688Z" fill="#407FF0"/>
<path d="M52.0898 49.4531C52.5753 49.4531 52.9688 49.0596 52.9688 48.5742C52.9688 48.0888 52.5753 47.6953 52.0898 47.6953C51.6044 47.6953 51.2109 48.0888 51.2109 48.5742C51.2109 49.0596 51.6044 49.4531 52.0898 49.4531Z" fill="#407FF0"/>
<path d="M52.0898 56.4844C52.5753 56.4844 52.9688 56.0909 52.9688 55.6055C52.9688 55.1201 52.5753 54.7266 52.0898 54.7266C51.6044 54.7266 51.2109 55.1201 51.2109 55.6055C51.2109 56.0909 51.6044 56.4844 52.0898 56.4844Z" fill="#407FF0"/>
<path d="M55.6055 52.9688C56.0909 52.9688 56.4844 52.5753 56.4844 52.0898C56.4844 51.6044 56.0909 51.2109 55.6055 51.2109C55.1201 51.2109 54.7266 51.6044 54.7266 52.0898C54.7266 52.5753 55.1201 52.9688 55.6055 52.9688Z" fill="#407FF0"/>
<path d="M48.5742 19.3359C49.0596 19.3359 49.4531 18.9424 49.4531 18.457C49.4531 17.9716 49.0596 17.5781 48.5742 17.5781C48.0888 17.5781 47.6953 17.9716 47.6953 18.457C47.6953 18.9424 48.0888 19.3359 48.5742 19.3359Z" fill="#407FF0"/>
<path d="M52.0898 15.8203C52.5753 15.8203 52.9688 15.4268 52.9688 14.9414C52.9688 14.456 52.5753 14.0625 52.0898 14.0625C51.6044 14.0625 51.2109 14.456 51.2109 14.9414C51.2109 15.4268 51.6044 15.8203 52.0898 15.8203Z" fill="#407FF0"/>
<path d="M52.0898 22.8516C52.5753 22.8516 52.9688 22.4581 52.9688 21.9727C52.9688 21.4872 52.5753 21.0938 52.0898 21.0938C51.6044 21.0938 51.2109 21.4872 51.2109 21.9727C51.2109 22.4581 51.6044 22.8516 52.0898 22.8516Z" fill="#407FF0"/>
<path d="M55.6055 19.3359C56.0909 19.3359 56.4844 18.9424 56.4844 18.457C56.4844 17.9716 56.0909 17.5781 55.6055 17.5781C55.1201 17.5781 54.7266 17.9716 54.7266 18.457C54.7266 18.9424 55.1201 19.3359 55.6055 19.3359Z" fill="#407FF0"/>
<path d="M30.9961 52.9688C31.4815 52.9688 31.875 52.5753 31.875 52.0898C31.875 51.6044 31.4815 51.2109 30.9961 51.2109C30.5107 51.2109 30.1172 51.6044 30.1172 52.0898C30.1172 52.5753 30.5107 52.9688 30.9961 52.9688Z" fill="#407FF0"/>
<path d="M34.5117 49.4531C34.9971 49.4531 35.3906 49.0596 35.3906 48.5742C35.3906 48.0888 34.9971 47.6953 34.5117 47.6953C34.0263 47.6953 33.6328 48.0888 33.6328 48.5742C33.6328 49.0596 34.0263 49.4531 34.5117 49.4531Z" fill="#407FF0"/>
<path d="M34.5117 56.4844C34.9971 56.4844 35.3906 56.0909 35.3906 55.6055C35.3906 55.1201 34.9971 54.7266 34.5117 54.7266C34.0263 54.7266 33.6328 55.1201 33.6328 55.6055C33.6328 56.0909 34.0263 56.4844 34.5117 56.4844Z" fill="#407FF0"/>
<path d="M38.0273 52.9688C38.5128 52.9688 38.9062 52.5753 38.9062 52.0898C38.9062 51.6044 38.5128 51.2109 38.0273 51.2109C37.5419 51.2109 37.1484 51.6044 37.1484 52.0898C37.1484 52.5753 37.5419 52.9688 38.0273 52.9688Z" fill="#407FF0"/>
<path d="M11.4258 19.3359C15.7875 19.3359 19.3359 15.7875 19.3359 11.4258C19.3359 7.06406 15.7875 3.51562 11.4258 3.51562C10.0117 3.51562 8.6223 3.89496 7.40801 4.6125C6.99012 4.85941 6.85148 5.39848 7.0984 5.81625C7.34543 6.23426 7.88449 6.37266 8.30215 6.12586C9.24586 5.56828 10.326 5.27344 11.4258 5.27344C14.8181 5.27344 17.5781 8.03344 17.5781 11.4258C17.5781 14.8181 14.8181 17.5781 11.4258 17.5781C8.03344 17.5781 5.27344 14.8181 5.27344 11.4258C5.27344 10.3262 5.56828 9.24598 6.12586 8.30227C6.37277 7.88438 6.23426 7.34543 5.81625 7.09852C5.39812 6.8516 4.85941 6.99035 4.6125 7.40812C3.89484 8.62254 3.51562 10.0119 3.51562 11.4258C3.51562 15.7875 7.06406 19.3359 11.4258 19.3359Z" fill="#407FF0"/>
<path d="M11.4258 15.8203C13.849 15.8203 15.8203 13.849 15.8203 11.4258C15.8203 9.00258 13.849 7.03125 11.4258 7.03125C9.00258 7.03125 7.03125 9.00258 7.03125 11.4258C7.03125 13.849 9.00258 15.8203 11.4258 15.8203ZM11.4258 8.78906C12.8796 8.78906 14.0625 9.97195 14.0625 11.4258C14.0625 12.8796 12.8796 14.0625 11.4258 14.0625C9.97195 14.0625 8.78906 12.8796 8.78906 11.4258C8.78906 9.97195 9.97195 8.78906 11.4258 8.78906Z" fill="#407FF0"/>
<path d="M53.8477 0H11.4258C5.12555 0 0 5.12555 0 11.4258V48.5742C0 54.8745 5.12555 60 11.4258 60C17.4304 60 22.3678 55.3443 22.818 49.4531H25.4156C24.9102 52.2226 24.6094 55.3888 24.6094 59.1211C24.6094 59.6066 25.0028 60 25.4883 60H53.8477C57.24 60 60 57.24 60 53.8477V6.15234C60 2.76 57.24 0 53.8477 0ZM11.4258 1.75781C16.7566 1.75781 21.0938 6.09492 21.0938 11.4258C21.0938 16.7566 16.7566 21.0938 11.4258 21.0938C6.09492 21.0938 1.75781 16.7566 1.75781 11.4258C1.75781 6.09492 6.09492 1.75781 11.4258 1.75781ZM11.4258 58.2422C6.09492 58.2422 1.75781 53.9051 1.75781 48.5742V17.5082C3.78328 20.7161 7.35961 22.8516 11.4258 22.8516C15.492 22.8516 19.0683 20.7161 21.0938 17.5082V48.5742C21.0938 53.9051 16.7566 58.2422 11.4258 58.2422ZM22.8516 47.6953V11.4258C22.8516 7.35961 20.7161 3.78328 17.5082 1.75781H53.8477C56.2709 1.75781 58.2422 3.72914 58.2422 6.15234C58.2422 8.57555 56.2709 10.5469 53.8477 10.5469H37.793C37.3075 10.5469 36.9141 10.9403 36.9141 11.4258C36.9141 23.1362 33.9731 28.836 30.8596 34.8704C28.9378 38.595 26.9752 42.399 25.7743 47.6953H22.8516ZM58.2422 53.8477C58.2422 56.2709 56.2709 58.2422 53.8477 58.2422H26.3733C26.5171 47.1223 29.3871 41.5577 32.4217 35.6764C35.4195 29.8664 38.5168 23.8642 38.6662 12.3047H53.8477C55.5679 12.3047 57.1246 11.5942 58.2422 10.4522V53.8477Z" fill="#407FF0"/>
</svg>
