<svg width="60" height="60" viewBox="0 0 60 60" fill="none" xmlns="http://www.w3.org/2000/svg">
<path d="M45.2065 1.4458C44.9149 0.400818 43.8324 -0.210854 42.7868 0.0785874L31.0524 3.50154C30.4426 1.38678 30.4131 0.74744 29.5082 0.245801C29.0571 -0.00053028 28.5275 -0.0605481 28.0327 0.0785874L12.8065 4.52449C11.7665 4.81617 11.1561 5.89191 11.4393 6.93432L18.3246 32.7343L7.90816 43.6228C4.29025 47.1538 4.21979 52.9492 7.75079 56.5671C11.2818 60.185 17.0771 60.2555 20.695 56.7245L22.1311 55.4851C23.692 57.4702 25.9997 58.7271 28.5141 58.9614C31.0284 59.1957 33.5287 58.387 35.4295 56.7245C42.0885 50.9901 44.518 48.7573 49.4754 45.3048C53.6864 42.3997 55.5744 37.1316 54.1672 32.213C46.1311 4.00318 62.6557 62.8917 45.2065 1.4458ZM15.4328 14.1638L30.8262 9.83596L31.4262 11.9015L15.9934 16.2491L15.4328 14.1638ZM33.8459 13.1212L45.5803 9.83596L46.1803 11.9015L34.4459 15.2458L33.8459 13.1212ZM43.318 1.96711L45.0295 7.86875L33.295 11.213C33.2262 10.9868 31.5246 5.10482 31.6032 5.37039L43.318 1.96711ZM28.5639 1.96711C29.4295 4.91793 27.4918 -1.75092 30.2754 7.86875L14.9213 12.2655L13.3573 6.36383C29.2131 1.77039 28.4655 1.96711 28.5639 1.96711ZM20.2721 32.213L16.5049 18.1474L31.9672 13.7704L36.1573 28.2097C29.0852 31.9376 26.1246 38.8622 30.7475 45.7769C27.4131 48.295 24.8459 50.5966 20.4787 54.295C18.1816 49.9548 14.7911 46.2896 10.6426 43.6622L19.8 34.1114C20.2743 33.6024 20.4528 32.8849 20.2721 32.213ZM32.3508 44.5966C28.5442 38.8425 30.895 33.4425 36.7278 30.1278L37.495 32.7638C38.6397 36.8725 37.0616 41.2557 33.5606 43.6917C33.1573 43.9868 32.7541 44.2622 32.3508 44.5966ZM14.036 57.0491C11.2983 56.8628 8.90859 55.1263 7.88585 52.5799C6.86311 50.0335 7.38773 47.1265 9.23603 45.0983C13.3773 47.6223 16.7378 51.245 18.9442 55.5638C17.5463 56.6453 15.799 57.1741 14.036 57.0491ZM23.5967 54.2261C26.8131 51.5114 26.0459 52.0917 29.3016 49.436C31.0522 51.2706 32.5296 53.3476 33.6885 55.6032C32.1654 56.7573 30.246 57.2585 28.3531 56.9965C26.4602 56.7346 24.7491 55.7308 23.5967 54.2065V54.2261ZM35.2229 54.3048C34.0388 52.0827 32.5635 50.0285 30.836 48.1966C32.095 47.213 33.3836 46.2294 34.7016 45.3245C38.8898 42.4065 40.7692 37.1553 39.3836 32.2425L34.9967 17.0851L46.7213 13.7704L50.9114 28.2196C43.8688 31.9278 40.859 38.8425 45.5016 45.7868C41.6262 48.6884 40.1114 50.1638 35.2229 54.2851V54.3048ZM48.3246 43.6917C47.9114 43.9769 47.5082 44.2819 47.095 44.5769C43.3278 38.872 45.6098 33.4524 51.4819 30.1278L52.2491 32.754C53.4036 36.8636 51.8284 41.2535 48.3246 43.6917Z" fill="#407FF0"/>
</svg>
