<svg width="60" height="60" viewBox="0 0 60 60" fill="none" xmlns="http://www.w3.org/2000/svg">
<g clip-path="url(#clip0)">
<path d="M23.3237 58.9944C10.4426 58.9945 0.000148115 48.5525 1.57566e-09 35.6712C-0.000148112 22.79 10.4418 12.3477 23.3231 12.3475C36.2044 12.3474 46.6467 22.7894 46.6468 35.6707V35.6714C46.6323 48.5463 36.1988 58.9798 23.3237 58.9944ZM23.3237 13.7619C11.2237 13.7616 1.41448 23.5705 1.41433 35.6705C1.41419 47.7705 11.223 57.5797 23.3231 57.5799C35.4231 57.58 45.2323 47.7712 45.2325 35.6712C45.2189 23.577 35.4181 13.7759 23.3237 13.7619Z" fill="#407FF0"/>
<path d="M3.41352 46.3025C3.27266 46.3025 3.13181 46.3018 2.9908 46.3005C2.60023 46.2985 2.28519 45.9804 2.28712 45.5898C2.28904 45.1992 2.60719 44.8842 2.99777 44.8861H3.00458C24.3055 45.139 43.9809 27.7784 44.1757 27.6031C44.4655 27.3412 44.9128 27.364 45.1745 27.6539C45.4363 27.9437 45.4136 28.391 45.1237 28.6527C45.1217 28.6545 45.1197 28.6565 45.1177 28.6582C44.9187 28.8357 25.1068 46.3025 3.41352 46.3025Z" fill="#407FF0"/>
<path d="M7.34202 52.2652C6.95144 52.269 6.63182 51.9555 6.62796 51.5649C6.62411 51.1743 6.93767 50.8547 7.32825 50.8508C8.2384 50.8335 9.17211 50.7839 10.1045 50.7037C10.4936 50.6701 10.8362 50.9584 10.8696 51.3475C10.9033 51.7365 10.615 52.0791 10.2259 52.1126C9.2632 52.1961 8.29631 52.2472 7.35579 52.2652H7.34202ZM12.9718 51.7851C12.5811 51.7839 12.2655 51.4664 12.2665 51.0757C12.2675 50.7266 12.523 50.4305 12.8681 50.3783C13.7922 50.2403 14.707 50.0766 15.6125 49.8873C15.9944 49.8063 16.3695 50.05 16.4507 50.4318C16.5319 50.8136 16.2881 51.1888 15.9062 51.27C15.9042 51.2704 15.9019 51.2709 15.8999 51.2713C14.969 51.4653 14.0283 51.634 13.078 51.7776C13.0429 51.7825 13.0074 51.7851 12.9718 51.7851ZM18.509 50.6346C18.1185 50.6347 17.8018 50.3182 17.8016 49.9276C17.8015 49.6065 18.0177 49.3257 18.328 49.2436C19.2342 49.004 20.1286 48.7436 21.0117 48.4625C21.3839 48.3443 21.7816 48.5502 21.8998 48.9224C22.018 49.2946 21.8121 49.6923 21.4399 49.8105C20.5352 50.0978 19.6185 50.3646 18.6899 50.6109C18.6309 50.6267 18.5702 50.6346 18.509 50.6346ZM23.9026 48.9254C23.512 48.9251 23.1955 48.6082 23.1958 48.2175C23.1959 47.9216 23.3805 47.6569 23.6582 47.5544C24.5421 47.2278 25.411 46.8864 26.2645 46.5302C26.6243 46.3784 27.039 46.5471 27.1908 46.9069C27.3427 47.2666 27.174 47.6813 26.8142 47.8332C26.8124 47.8339 26.8105 47.8346 26.8087 47.8354C25.9385 48.1987 25.0513 48.5474 24.1471 48.8817C24.0689 48.9108 23.9861 48.9255 23.9026 48.9254ZM29.1264 46.7487C28.7358 46.7485 28.4194 46.4319 28.4194 46.0414C28.4196 45.7665 28.5788 45.5167 28.8279 45.4007C29.687 45.0002 30.5296 44.5892 31.3487 44.1721C31.6973 43.9961 32.1227 44.1361 32.2988 44.4848C32.4742 44.8321 32.336 45.2558 31.9896 45.4331C31.1567 45.8572 30.3018 46.2735 29.4247 46.6825C29.3314 46.726 29.2295 46.7487 29.1264 46.7487ZM34.1679 44.1797C33.7773 44.1799 33.4605 43.8636 33.4602 43.4731C33.46 43.2156 33.5999 42.9783 33.8253 42.8537C34.6664 42.3876 35.4785 41.918 36.2576 41.4524C36.5922 41.2506 37.0269 41.3581 37.2288 41.6927C37.4307 42.0273 37.3231 42.462 36.9885 42.6639C36.9871 42.6647 36.9856 42.6656 36.9841 42.6665C36.1913 43.1403 35.3667 43.6152 34.5105 44.0912C34.4056 44.1494 34.2877 44.1798 34.1679 44.1797ZM39.0256 41.2735C38.6351 41.274 38.3183 40.9577 38.3179 40.5673C38.3176 40.3263 38.4401 40.1019 38.6428 39.9717C39.473 39.4379 40.2547 38.9158 40.9826 38.4158C41.3044 38.1945 41.7448 38.2763 41.966 38.5981C42.1873 38.92 42.1057 39.3603 41.7837 39.5816C41.0448 40.0899 40.2519 40.6189 39.408 41.1611C39.2942 41.2347 39.1612 41.2738 39.0256 41.2735ZM43.6885 38.0636C43.2979 38.0633 42.9815 37.7466 42.9817 37.3561C42.9818 37.1312 43.0887 36.9199 43.2699 36.7867C44.147 36.1417 44.8928 35.5643 45.4991 35.0824C45.8047 34.839 46.2496 34.8895 46.4928 35.1949C46.7362 35.5005 46.6857 35.9454 46.3803 36.1886C45.7628 36.6804 45.0005 37.2687 44.1067 37.9262C43.9857 38.0156 43.8391 38.0638 43.6885 38.0636Z" fill="#407FF0"/>
<path d="M16.3183 57.8887C15.9277 57.8886 15.6112 57.5719 15.6113 57.1813C15.6115 56.8496 15.8422 56.5624 16.1663 56.491C28.4177 53.7962 38.959 46.7873 44.1523 42.8494C44.4635 42.6138 44.907 42.675 45.1426 42.9862C45.3783 43.2973 45.3171 43.7408 45.0059 43.9764C39.7214 47.9847 28.9852 55.1193 16.4701 57.8721C16.4203 57.8831 16.3694 57.8886 16.3183 57.8887Z" fill="#407FF0"/>
<path d="M28.2464 39.6802C28.1584 39.6804 28.0713 39.6639 27.9894 39.6319C27.314 39.3682 11.4232 33.0104 7.83771 18.7434C7.74395 18.3639 7.97575 17.9801 8.35522 17.8865C8.73246 17.7934 9.11415 18.0218 9.21057 18.3981C12.6194 31.9656 28.3458 38.2529 28.5032 38.3143C28.8671 38.4562 29.047 38.8662 28.9051 39.2301C28.7993 39.5015 28.5377 39.6802 28.2464 39.6802Z" fill="#407FF0"/>
<path d="M20.589 43.018C20.475 43.018 20.3627 42.9906 20.2617 42.9378C15.161 40.2749 6.16103 34.3184 3.18454 24.3446C3.07271 23.97 3.28585 23.5757 3.66043 23.464C4.03501 23.3523 4.42914 23.5653 4.54096 23.9399C7.36682 33.4158 16.0132 39.1242 20.9165 41.6836C21.2628 41.8642 21.3972 42.2913 21.2166 42.6376C21.0947 42.8715 20.8528 43.018 20.589 43.018Z" fill="#407FF0"/>
<path d="M12.347 45.3723C12.2119 45.3723 12.0796 45.3338 11.9657 45.261C7.14584 42.3065 3.12145 38.2183 0.243459 33.3523C0.0543186 33.0109 0.177697 32.5809 0.51895 32.3918C0.860352 32.2026 1.29033 32.326 1.47947 32.6673C1.47991 32.6682 1.4805 32.669 1.48095 32.6699C4.24608 37.3287 8.10695 41.2417 12.7281 44.069C13.057 44.2801 13.1524 44.7179 12.9414 45.0467C12.8115 45.2493 12.5875 45.372 12.347 45.3723Z" fill="#407FF0"/>
<path d="M14.2296 29.7631L14.2047 29.7624C13.8147 29.7486 13.5096 29.4217 13.5224 29.0317C13.7986 21.0422 19.3345 13.1975 19.5692 12.8675C19.7984 12.551 20.2408 12.4803 20.5573 12.7095C20.8706 12.9364 20.9436 13.3727 20.7213 13.6892C20.666 13.7666 15.1978 21.5234 14.9367 29.08C14.9235 29.4611 14.6108 29.7631 14.2296 29.7631Z" fill="#407FF0"/>
<path d="M20.1456 35.0739L20.1193 35.0731C19.7289 35.0583 19.4242 34.7303 19.4385 34.3397C19.8169 24.4164 27.3486 13.6416 27.6691 13.1879C27.8944 12.869 28.3355 12.7932 28.6542 13.0183C28.973 13.2434 29.049 13.6845 28.8238 14.0034C28.7478 14.1118 21.2148 24.8936 20.8528 34.3934C20.8377 34.7735 20.5256 35.0736 20.1456 35.0739Z" fill="#407FF0"/>
<path d="M28.2461 39.223L28.2199 39.2223C27.8295 39.2075 27.5248 38.8793 27.5391 38.4888C27.9175 28.5746 35.4382 17.2639 35.7586 16.7873C35.9781 16.4642 36.418 16.3804 36.741 16.5999C37.0616 16.8178 37.147 17.2531 36.9327 17.576C36.8567 17.6893 29.3154 29.0331 28.9535 38.5428C28.9383 38.9227 28.6262 39.2229 28.2461 39.223Z" fill="#407FF0"/>
<path d="M36.9949 34.578C36.9418 34.5781 36.889 34.5721 36.8374 34.5601C36.4569 34.4734 36.2187 34.0947 36.3054 33.7142C36.3054 33.7139 36.3055 33.7137 36.3055 33.7134C37.3403 29.602 38.8777 25.6334 40.8828 21.8979C41.064 21.5516 41.4916 21.4177 41.838 21.5988C42.1843 21.78 42.3182 22.2076 42.1371 22.554C40.1872 26.1814 38.6916 30.0352 37.684 34.0283C37.6107 34.3499 37.3247 34.5781 36.9949 34.578Z" fill="#407FF0"/>
<path d="M30.3028 14.8592C30.2526 14.8594 30.2027 14.8541 30.1537 14.8434C29.7718 14.7622 29.5282 14.387 29.6093 14.0052C29.6093 14.0049 29.6095 14.0046 29.6095 14.0043L31.1164 6.95457C31.198 6.57244 31.5741 6.32879 31.9562 6.4104C32.3383 6.49201 32.582 6.86807 32.5004 7.2502L30.9935 14.3C30.9236 14.6255 30.6361 14.8585 30.3028 14.8592Z" fill="#407FF0"/>
<path d="M38.8429 19.9284C38.7256 19.9288 38.6102 19.8995 38.5072 19.8434C38.1635 19.6582 38.0348 19.2294 38.2199 18.8855L44.0528 8.07132C44.2382 7.72726 44.6673 7.59869 45.0113 7.78398C45.3554 7.96942 45.484 8.39851 45.2987 8.74257L39.4658 19.5568C39.3422 19.7858 39.103 19.9284 38.8429 19.9284Z" fill="#407FF0"/>
<path d="M45.944 9.23496C44.1739 9.23836 42.7363 7.80625 42.7329 6.0363C42.7295 4.2662 44.1616 2.82861 45.9316 2.8252C47.7015 2.82179 49.1393 4.2539 49.1427 6.02386C49.1433 6.32971 49.1 6.63408 49.0144 6.92765C48.6149 8.29207 47.3655 9.23096 45.944 9.23496ZM45.9411 4.23983C45.1458 4.24087 44.4461 4.76504 44.2215 5.52783C43.9442 6.47664 44.4885 7.47078 45.4375 7.74805C46.3863 8.02531 47.3804 7.481 47.6577 6.53204C47.935 5.58322 47.3906 4.58908 46.4417 4.31182C46.4415 4.31182 46.4414 4.31167 46.4411 4.31167C46.2789 4.26383 46.1105 4.23968 45.9411 4.23983Z" fill="#407FF0"/>
<path d="M32.2946 7.41446C30.525 7.41446 29.0903 5.97968 29.0903 4.21002C29.0903 2.44036 30.5251 1.00574 32.2949 1.00574C34.0646 1.00574 35.4992 2.44051 35.4992 4.21017C35.4992 4.51425 35.456 4.8167 35.3706 5.10848C34.9737 6.47675 33.7193 7.41712 32.2946 7.41446ZM32.2933 2.42007C31.4994 2.42289 30.8016 2.94706 30.5778 3.70881C30.3028 4.65644 30.8481 5.64746 31.7958 5.92251C32.7434 6.19756 33.7344 5.6522 34.0095 4.70457C34.2845 3.75694 33.7392 2.76592 32.7915 2.49087C32.6295 2.44392 32.4618 2.42007 32.2933 2.42007Z" fill="#407FF0"/>
<path d="M59.293 54.2554C59.2179 54.2556 59.1433 54.2437 59.072 54.2202C54.8207 52.8224 54.5886 47.0682 54.4504 43.6305C54.4297 43.1325 54.4076 42.5669 54.369 42.1236C47.2019 51.7976 40.0638 51.9094 39.7613 51.9094C39.3707 51.9102 39.0535 51.5943 39.0527 51.2037C39.052 50.8131 39.3679 50.4958 39.7585 50.4951C39.8262 50.4944 46.6135 50.3343 53.3717 41.0932C53.6106 40.7658 54.1853 39.9979 54.909 40.2251C55.7377 40.4772 55.7792 41.5117 55.8634 43.5732C55.9947 46.8432 56.1949 51.7852 59.514 52.8763C59.885 52.9988 60.0865 53.3987 59.9641 53.7697C59.8684 54.0593 59.598 54.2551 59.293 54.2554Z" fill="#407FF0"/>
</g>
<defs>
<clipPath id="clip0">
<rect width="60" height="60" fill="white"/>
</clipPath>
</defs>
</svg>
