<svg width="24" height="22" viewBox="0 0 24 22" fill="none" xmlns="http://www.w3.org/2000/svg">
<path fill-rule="evenodd" clip-rule="evenodd" d="M17.7628 0.5C19.3273 0.5 20.8323 1.11833 21.9395 2.22783C23.0478 3.335 23.6673 4.82833 23.6673 6.39167V15.6083C23.6673 18.8633 21.019 21.5 17.7628 21.5H6.23732C2.98115 21.5 0.333984 18.8633 0.333984 15.6083V6.39167C0.333984 3.13667 2.96948 0.5 6.23732 0.5H17.7628ZM19.619 8.12999L19.7123 8.03666C19.9911 7.69833 19.9911 7.20833 19.6995 6.86999C19.5373 6.69616 19.3145 6.58999 19.0823 6.56666C18.8373 6.55383 18.604 6.63666 18.4278 6.79999L13.1673 11C12.4906 11.5612 11.5211 11.5612 10.834 11L5.58397 6.79999C5.22114 6.53166 4.71947 6.56666 4.41731 6.88166C4.10231 7.19666 4.06731 7.69833 4.33447 8.04833L4.48731 8.19999L9.79564 12.3417C10.449 12.855 11.2411 13.135 12.0706 13.135C12.8978 13.135 13.704 12.855 14.3561 12.3417L19.619 8.12999Z" fill="#407FF0"/>
</svg>
