<svg width="18" height="21" viewBox="0 0 18 21" fill="none" xmlns="http://www.w3.org/2000/svg">
<path d="M5.91635 0.362193C5.56411 0.144256 5.10188 0.253135 4.88395 0.60538C4.66601 0.957625 4.77489 1.41985 5.12713 1.63778L5.91635 0.362193ZM9 3.15201L9.63614 3.54928C9.74179 3.3801 9.7757 3.17581 9.73038 2.98158C9.68505 2.78734 9.56422 2.61916 9.39461 2.51422L9 3.15201ZM6.2769 6.09662C6.0575 6.44795 6.16445 6.91062 6.51578 7.13003C6.86711 7.34943 7.32979 7.24248 7.54919 6.89115L6.2769 6.09662ZM14.908 4.80859C14.6092 4.52171 14.1345 4.53136 13.8476 4.83015C13.5607 5.12893 13.5704 5.60371 13.8691 5.89059L14.908 4.80859ZM5.12713 1.63778L8.60539 3.78981L9.39461 2.51422L5.91635 0.362193L5.12713 1.63778ZM8.36385 2.75475L6.2769 6.09662L7.54919 6.89115L9.63614 3.54928L8.36385 2.75475ZM16.25 11.576C16.25 15.8512 12.968 19.25 9 19.25V20.75C13.8685 20.75 17.75 16.6057 17.75 11.576H16.25ZM9 19.25C5.03196 19.25 1.75 15.8512 1.75 11.576H0.25C0.25 16.6057 4.13148 20.75 9 20.75V19.25ZM1.75 11.576C1.75 7.30082 5.03196 3.90201 9 3.90201V2.40201C4.13148 2.40201 0.25 6.54633 0.25 11.576H1.75ZM13.8691 5.89059C15.3279 7.29122 16.25 9.31557 16.25 11.576H17.75C17.75 8.90303 16.6584 6.4892 14.908 4.80859L13.8691 5.89059Z" fill="#407FF0"/>
</svg>
