<svg width="28" height="28" viewBox="0 0 28 28" fill="none" xmlns="http://www.w3.org/2000/svg">
<path d="M16.8207 6.405C16.2653 6.30241 15.7552 6.65683 15.6495 7.19896C15.5437 7.74109 15.8993 8.27039 16.4396 8.37648C18.0662 8.6936 19.3222 9.95273 19.6406 11.5849V11.5861C19.7312 12.056 20.1448 12.3976 20.6212 12.3976C20.6851 12.3976 20.749 12.3917 20.8141 12.3801C21.3543 12.2716 21.7099 11.7435 21.6041 11.2002C21.1289 8.76238 19.2525 6.87951 16.8207 6.405Z" fill="#407FF0"/>
<path d="M16.7472 2.34263C16.4869 2.30532 16.2255 2.38226 16.0175 2.54782C15.8037 2.7157 15.6701 2.9582 15.6411 3.22985C15.5795 3.77897 15.9757 4.27563 16.5241 4.33742C20.306 4.75947 23.2456 7.70561 23.6709 11.4993C23.7278 12.0077 24.1542 12.3912 24.6631 12.3912C24.7015 12.3912 24.7386 12.3889 24.777 12.3842C25.043 12.3551 25.2801 12.2233 25.4474 12.0135C25.6135 11.8036 25.6891 11.5425 25.6588 11.2755C25.129 6.54207 21.4656 2.86843 16.7472 2.34263Z" fill="#407FF0"/>
<path fill-rule="evenodd" clip-rule="evenodd" d="M12.871 15.1345C17.5249 19.7871 18.5807 14.4045 21.5439 17.3656C24.4006 20.2216 26.0425 20.7937 22.4231 24.4122C21.9697 24.7765 19.0892 29.16 8.96602 19.0396C-1.15841 8.918 3.2225 6.03452 3.58695 5.58127C7.21516 1.95282 7.77749 3.60428 10.6342 6.46022C13.5974 9.42258 8.21708 10.4818 12.871 15.1345Z" fill="#407FF0"/>
</svg>
